<svg xmlns="http://www.w3.org/2000/svg" height="800" width="1200" viewBox="-8.321145 -5.8473 72.11659 35.0838"><path d="M0 23.3892h55.4743V0H0z" fill="#009"/><path d="M15.52 11.1592c0-1.4499-1.329-3.5345-3.8968-3.5345-2.3262 0-3.8971 1.994-3.8971 4.0482 0 2.4468 1.6919 4.1987 4.5917 4.1987h5.498c-1.2989 2.024-3.5644 3.3232-6.1626 3.3232-4.1081 0-7.4313-3.3532-7.4313-7.4616 0-4.1085 3.3232-7.4616 7.4313-7.4616 4.1084 0 7.4616 3.3531 7.4616 7.4616 0 .8156-.151 1.6009-.3623 2.3262h-8.3076v-.816l2.9302-.0903c1.4803-.0607 2.1449-.8156 2.1449-1.9939" fill="#fff"/><path d="M16.9224 19.2048v-.5095h-.182v-.1038h.4874v.1038h-.1816v.5095zm.3838 0v-.6133h.1853l.1113.4184.11-.4184h.1858v.6133h-.115v-.4828l-.1218.4828h-.1193l-.1213-.4828v.4828z" style="-inkscape-font-specification:Helvetica-Bold" font-weight="700" font-family="Helvetica" fill="#fff"/><path d="M25.4154 7.975c0-.4251-.3899-1.0365-1.143-1.0365-.682 0-1.1427.5845-1.1427 1.187 0 .7176.496 1.2316 1.3466 1.2316h1.6125c-.381.5934-1.0456.9744-1.8073.9744-1.205 0-2.1794-.9832-2.1794-2.1883 0-1.2047.9743-2.1883 2.1794-2.1883 1.2048 0 2.1883.9836 2.1883 2.1883 0 .2392-.0444.4696-.1065.6823H23.927v-.2392l.8594-.0268c.4342-.0176.629-.2392.629-.5845" fill="#fff"/><path d="M28.2856 7.3105l.8329-1.2227H30.27l-1.4175 1.9759 1.5328 2.135h-1.2227l-.9123-1.3289-.9214 1.329H26.177l1.506-2.0822-1.4615-2.0288h1.2224zm3.3664-.4165c.3013-.6378.8417-.9214 1.391-.9214.9924 0 1.8958.8417 1.8958 2.1706 0 1.329-.9034 2.1707-1.8958 2.1707-.5493 0-1.0897-.2837-1.391-.9215-.0176-.0353-.044-.0265-.044.009v2.4896h-1.0634V6.088h1.0633v.7973c0 .0353.0265.0445.0441.009m1.0986 2.5428c.6201 0 1.1606-.5404 1.1606-1.2936 0-.7532-.5405-1.2933-1.1606-1.2933-.6114 0-1.1607.5401-1.1607 1.2933 0 .7532.5493 1.2936 1.1607 1.2936m5.8469-1.4621c0-.4251-.3899-1.0365-1.143-1.0365-.682 0-1.1427.5845-1.1427 1.187 0 .7176.496 1.2316 1.3466 1.2316h1.6125c-.381.5934-1.0456.9744-1.8073.9744-1.205 0-2.1794-.9832-2.1794-2.1883 0-1.2047.9743-2.1883 2.1794-2.1883 1.2048 0 2.1883.9836 2.1883 2.1883 0 .2392-.0444.4696-.1065.6823H37.109v-.2392l.8594-.0268c.4342-.0176.629-.2392.629-.5845m4.6863 1.4174c-.3012.6379-.8417.9215-1.391.9215-.992 0-1.8958-.8417-1.8958-2.1707 0-1.3289.9038-2.1706 1.8958-2.1706.5493 0 1.0898.2836 1.391.9215.0176.0353.0445.0265.0445-.009V4.307h1.063v5.8914h-1.063V9.401c0-.0353-.0268-.0441-.0445-.009m-1.0985-2.5428c-.6202 0-1.1607.5404-1.1607 1.2936 0 .7532.5405 1.2936 1.1607 1.2936.6113 0 1.1606-.5404 1.1606-1.2936 0-.7532-.5493-1.2936-1.1606-1.2936m2.879-1.9574c0-.3365.2836-.6201.6202-.6201.3365 0 .6202.2836.6202.6201 0 .3366-.2837.6202-.6202.6202-.3366 0-.6202-.2836-.6202-.6202m1.1518 5.3069h-1.0633v-4.111h1.0633zm3.8182-.8063c-.3013.6379-.8418.9215-1.391.9215-.992 0-1.8959-.8417-1.8959-2.1707 0-1.3289.9039-2.1706 1.8959-2.1706.5492 0 1.0897.2836 1.391.9215.0176.0353.0445.0265.0445-.009v-.7973h1.0629v4.1106h-1.063V9.401c0-.0353-.0267-.0441-.0444-.009m-1.0986-2.5428c-.6202 0-1.1606.5404-1.1606 1.2936 0 .7532.5404 1.2936 1.1606 1.2936.6114 0 1.1607-.5404 1.1607-1.2936 0-.7532-.5493-1.2936-1.1607-1.2936m-23.1692 9.8254c0-.0353-.0265-.0445-.0445-.009-.301.6378-.8325.9215-1.373.9215-.9835 0-1.8782-.833-1.8782-2.153 0-1.3201.8947-2.1527 1.8782-2.1527.5405 0 1.072.2833 1.373.9211.018.0356.0445.0268.0445-.009v-.7972h1.0633v3.8717c0 1.1426-.7888 2.0288-2.153 2.0288-.762 0-1.4263-.266-1.9135-.7179l.6378-.691c.4251.3368.7617.514 1.258.514.7797 0 1.1074-.5494 1.1074-1.2316zm-1.125-2.516c-.6114 0-1.143.5317-1.143 1.2757 0 .7443.5316 1.2756 1.143 1.2756.6022 0 1.1427-.5313 1.1427-1.2756 0-.744-.5405-1.2757-1.1427-1.2757m4.0129-.762v.8947c0 .018.0176.0268.0265 0 .1418-.7352.4608-1.01 1.01-1.01h.0977v1.1165h-.4783c-.4343 0-.6559.3366-.6559.815v2.2948h-1.0629v-4.111zm3.3931-.1328c1.196 0 2.1795.9835 2.1795 2.1882 0 1.2048-.9836 2.1883-2.1795 2.1883-1.2135 0-2.197-.9835-2.197-2.1883 0-1.2047.9835-2.1882 2.197-2.1882m-.009.9655c-.6378 0-1.1606.5316-1.1606 1.2227 0 .6911.5228 1.2228 1.1606 1.2228s1.1607-.5317 1.1607-1.2228c0-.691-.5229-1.2227-1.1607-1.2227m4.3942 3.411c-1.0364 0-1.701-.629-1.701-1.5504v-2.6931h1.0632V16.01c0 .4075.2656.6735.6643.6735.3633 0 .6381-.2748.6381-.6646v-2.6222h1.063v2.693c0 .9215-.7176 1.5505-1.7276 1.5505m3.5701-3.4373c.3013-.6379.8418-.9215 1.391-.9215.992 0 1.8959.8417 1.8959 2.1706 0 1.329-.9039 2.1707-1.8959 2.1707-.5492 0-1.0897-.2837-1.391-.9215-.0176-.0353-.0445-.0265-.0445.009v2.4896h-1.0629v-5.8029h1.063v.7973c0 .0353.0267.0441.0444.009m1.0986 2.5428c.6202 0 1.1606-.5404 1.1606-1.2936 0-.7532-.5404-1.2936-1.1606-1.2936-.6114 0-1.1607.5404-1.1607 1.2936 0 .7532.5493 1.2936 1.1607 1.2936" fill="#fff"/><path d="M44.0732 14.0092v-.5099h-.1821v-.1038h.4877v.1038h-.1817v.5099zm.384 0v-.6137h.1854l.1114.4186.11-.4186h.186v.6137h-.1152v-.483l-.1218.483h-.1193l-.1214-.483v.483z" style="-inkscape-font-specification:Helvetica-Bold" font-weight="700" font-family="Helvetica" fill="#fff"/></svg>